<?xml version="1.0" encoding="utf-8"?>
<!DOCTYPE svg PUBLIC "-//W3C//DTD SVG 1.1//EN" "http://www.w3.org/Graphics/SVG/1.1/DTD/svg11.dtd">
<svg id="mySVG" style="fill:#fff;stroke: #000; stroke-opacity: 0.1" version="1.1" xmlns="http://www.w3.org/2000/svg" xmlns:xlink="http://www.w3.org/1999/xlink" x="0px" y="0px" viewBox="0 0 1000 1000" enable-background="new 0 0 1000 1000" xml:space="preserve">
<g>
	<g transform="translate(0.000000,511.000000) scale(0.100000,-0.100000)">
	<path id="myPath" d="M4645.7,4999.5c-26.7-4.1-78.2-41.1-117.2-80.2c-90.5-90.5-94.6-181-20.6-401c129.6-378.4,218-851.4,246.8-1318.3l14.4-242.7h-273.5c-664.3-2.1-1203.1-121.3-1756.3-390.8C2019.5,2217,1476.5,1682.3,1137.2,993.3C874,462.7,754.7-59.6,754.7-672.5c0-641.7,131.6-1223.7,399-1768.7c300.3-610.8,777.4-1114.7,1382-1456.1c205.7-117.2,686.9-318.8,1024.2-427.8c191.3-63.8,645.8-162.5,740.4-162.5c41.1,0,59.6-16.4,84.3-76.1c45.2-106.9,102.8-164.5,207.7-203.6c168.6-63.8,359.9,10.3,433.9,166.6c30.8,63.8,41.1,69.9,158.3,82.3c705.4,80.2,1536.3,283.8,1964,485.4c726,339.3,1345,1055,1637,1892.1c156.3,444.2,215.9,812.4,215.9,1328.5c0,1133.2-341.4,2095.6-968.6,2718.8C7430.3,2509,6472,2873.1,5349.1,2930.6L5092,2943l14.4,238.6c6.2,131.6,16.5,242.7,20.6,246.8c4.1,4.1,80.2-24.7,166.6-63.8c349.6-160.4,664.3-222.1,1116.7-222.1c567.6,0,997.4,69.9,1686.4,277.6c542.9,162.5,660.1,189.2,927.5,218c117.2,10.3,215.9,24.7,220.1,28.8c14.4,14.4-119.3,252.9-211.8,378.4c-353.7,479.2-952.2,839.1-1561,937.8c-448.3,74-1018-8.2-1443.7-203.6c-349.6-162.5-647.8-438.1-837-771.2l-65.8-115.2l-24.7,244.7c-26.7,257.1-109,633.4-158.3,730.1C4890.5,4966.6,4763,5022.2,4645.7,4999.5z"/>
	</g>
</g>
</svg>